<svg xmlns="http://www.w3.org/2000/svg" xmlns:xlink="http://www.w3.org/1999/xlink" width="600" zoomAndPan="magnify" viewBox="0 0 450 449.999984" height="600" preserveAspectRatio="xMidYMid meet" version="1.0"><rect x="-45" width="540" fill="#ffffff" y="-44.999998" height="539.99998" fill-opacity="1"/><rect x="-45" width="540" fill="#d9d9d9" y="-44.999998" height="539.99998" fill-opacity="1"/><path fill="#1f3038" d="M 234.015625 141.382812 C 273.230469 130.53125 296.210938 164.230469 314.90625 211.625 C 316.214844 214.941406 317.757812 218.167969 319.519531 221.269531 C 335.902344 250.152344 349.820312 277.597656 340.441406 295.726562 C 341.726562 285.789062 340.59375 277.019531 336.578125 269.640625 C 336.03125 297.332031 324.914062 316.027344 297.484375 320.84375 C 302.855469 316.472656 306.269531 311.757812 304.964844 306.214844 C 299.683594 313.328125 293.484375 317.074219 286.238281 316.941406 C 289.320312 312.707031 290.902344 308.527344 288.074219 304.507812 C 269.570312 327.425781 208.597656 326.289062 174.890625 311.089844 C 174.648438 315.550781 177.605469 318.636719 182.613281 320.84375 C 160.25 323.507812 145.304688 316.914062 135.796875 303.53125 C 136.074219 309.144531 138.722656 313.898438 144.726562 317.429688 C 129.09375 314.867188 119.488281 303.910156 120.835938 277.683594 C 117.296875 285.722656 116.351562 293.867188 116.730469 302.066406 C 100.378906 283.320312 108.261719 256.898438 126.367188 226.324219 C 128.796875 222.214844 130.875 217.902344 132.71875 213.496094 C 155.03125 160.183594 192.601562 122.679688 234.015625 141.382812 Z M 234.015625 141.382812 " fill-opacity="1" fill-rule="nonzero"/><path fill="#fdceb2" d="M 157.417969 247.738281 C 157.070312 245.710938 154.707031 243.394531 153.175781 242.261719 C 148.125 238.519531 140.917969 239.777344 138.011719 245.386719 C 136.21875 248.851562 135.695312 252.964844 135.964844 256.816406 C 136.683594 267.179688 143.660156 275.414062 153.707031 277.992188 C 156.671875 278.753906 159.742188 279.054688 162.796875 279.050781 C 162.796875 279.050781 157.429688 247.796875 157.417969 247.738281 Z M 157.417969 247.738281 " fill-opacity="1" fill-rule="nonzero"/><path fill="#fdceb2" d="M 294.867188 247.738281 C 295.214844 245.710938 297.578125 243.394531 299.109375 242.261719 C 304.164062 238.519531 311.367188 239.777344 314.273438 245.386719 C 316.066406 248.851562 316.589844 252.964844 316.320312 256.816406 C 315.601562 267.179688 308.625 275.414062 298.578125 277.992188 C 295.613281 278.753906 292.542969 279.054688 289.488281 279.050781 C 289.488281 279.050781 294.855469 247.796875 294.867188 247.738281 Z M 294.867188 247.738281 " fill-opacity="1" fill-rule="nonzero"/><path fill="#ea9671" d="M 158.652344 254.539062 C 158.652344 254.539062 150.894531 241.332031 144.285156 247.871094 C 137.675781 254.40625 139.964844 270.933594 163.863281 271.1875 Z M 158.652344 254.539062 " fill-opacity="1" fill-rule="nonzero"/><path fill="#ea9671" d="M 293.632812 254.539062 C 293.632812 254.539062 301.390625 241.332031 308 247.871094 C 314.613281 254.40625 312.324219 270.933594 288.421875 271.1875 Z M 293.632812 254.539062 " fill-opacity="1" fill-rule="nonzero"/><path fill="#fdceb2" d="M 155.601562 219.226562 C 153.78125 266.035156 157.132812 309.5 226.140625 310.40625 C 295.152344 309.5 298.503906 266.035156 296.683594 219.226562 C 296.683594 219.226562 280.625 158.628906 226.140625 158.628906 C 171.660156 158.628906 155.601562 219.226562 155.601562 219.226562 Z M 155.601562 219.226562 " fill-opacity="1" fill-rule="nonzero"/><path fill="#1f3038" d="M 238.1875 146.714844 C 165.71875 146.714844 148.652344 211.597656 155.273438 244.140625 C 164.128906 181.625 225.59375 230.285156 244.324219 167.78125 C 243.828125 170.390625 243.195312 172.976562 242.4375 175.515625 C 240.996094 180.328125 239.027344 184.984375 236.484375 189.300781 C 233.945312 193.613281 230.785156 197.59375 226.886719 200.753906 C 223.027344 203.957031 218.441406 206.222656 213.609375 207.570312 L 213.695312 207.894531 C 218.878906 207.699219 224.121094 205.875 228.53125 202.789062 C 230.769531 201.285156 232.78125 199.449219 234.59375 197.464844 C 236.382812 195.453125 237.9375 193.257812 239.347656 190.988281 C 240.652344 188.664062 241.8125 186.273438 242.765625 183.8125 C 243.644531 181.328125 244.472656 178.832031 244.957031 176.257812 C 245.378906 174.210938 245.691406 172.140625 245.871094 170.066406 C 251.511719 203.195312 296.785156 207.910156 296.785156 244.398438 L 296.792969 244.398438 C 297.558594 243.535156 298.425781 242.777344 299.113281 242.269531 C 301.40625 240.574219 304.136719 239.894531 306.71875 240.207031 C 306.71875 240.207031 310.65625 146.714844 238.1875 146.714844 Z M 238.1875 146.714844 " fill-opacity="1" fill-rule="nonzero"/><path fill="#ea9671" d="M 248.96875 275.632812 C 248.71875 275.246094 248.203125 275.136719 247.816406 275.382812 C 231.492188 285.855469 216.59375 285.871094 203.539062 275.433594 C 203.183594 275.148438 202.660156 275.207031 202.371094 275.5625 C 202.085938 275.921875 202.144531 276.445312 202.5 276.734375 C 209.347656 282.207031 216.664062 284.945312 224.398438 284.945312 C 232.109375 284.945312 240.230469 282.222656 248.714844 276.785156 C 249.101562 276.535156 249.214844 276.019531 248.96875 275.632812 Z M 248.96875 275.632812 " fill-opacity="1" fill-rule="nonzero"/><path fill="#ea9671" d="M 233.820312 266.332031 C 233.726562 266.042969 231.5 259.300781 226.144531 259.300781 C 220.816406 259.300781 218.203125 266.003906 218.09375 266.289062 C 217.929688 266.71875 218.144531 267.195312 218.574219 267.359375 C 218.671875 267.398438 218.773438 267.417969 218.871094 267.417969 C 219.207031 267.414062 219.519531 267.210938 219.648438 266.882812 C 219.671875 266.824219 221.964844 260.964844 226.144531 260.964844 C 230.285156 260.964844 232.214844 266.78125 232.234375 266.839844 C 232.375 267.277344 232.84375 267.515625 233.28125 267.375 C 233.71875 267.234375 233.960938 266.765625 233.820312 266.332031 Z M 233.820312 266.332031 " fill-opacity="1" fill-rule="nonzero"/><path fill="#ff7b7b" d="M 181.804688 258.160156 C 182.535156 258.304688 183.253906 258.476562 183.957031 258.679688 C 184.664062 258.882812 185.339844 259.117188 185.992188 259.378906 C 186.640625 259.636719 187.253906 259.921875 187.824219 260.230469 C 188.398438 260.535156 188.917969 260.859375 189.390625 261.199219 C 189.859375 261.539062 190.269531 261.890625 190.625 262.253906 C 190.976562 262.617188 191.261719 262.980469 191.480469 263.351562 C 191.699219 263.71875 191.847656 264.085938 191.925781 264.449219 C 192.003906 264.808594 192.011719 265.160156 191.945312 265.503906 C 191.878906 265.84375 191.742188 266.167969 191.535156 266.476562 C 191.328125 266.785156 191.054688 267.066406 190.714844 267.328125 C 190.375 267.589844 189.972656 267.824219 189.511719 268.03125 C 189.050781 268.234375 188.539062 268.410156 187.976562 268.550781 C 187.410156 268.691406 186.808594 268.800781 186.164062 268.875 C 185.515625 268.945312 184.84375 268.984375 184.144531 268.984375 C 183.441406 268.984375 182.726562 268.949219 181.996094 268.875 C 181.265625 268.804688 180.535156 268.699219 179.804688 268.558594 C 179.074219 268.417969 178.355469 268.246094 177.648438 268.039062 C 176.945312 267.835938 176.265625 267.605469 175.617188 267.34375 C 174.964844 267.082031 174.355469 266.800781 173.78125 266.492188 C 173.210938 266.1875 172.691406 265.863281 172.21875 265.519531 C 171.75 265.179688 171.335938 264.828125 170.984375 264.46875 C 170.632812 264.105469 170.347656 263.738281 170.128906 263.371094 C 169.910156 263 169.761719 262.636719 169.683594 262.273438 C 169.605469 261.910156 169.597656 261.558594 169.664062 261.21875 C 169.730469 260.875 169.867188 260.550781 170.074219 260.246094 C 170.28125 259.9375 170.554688 259.652344 170.894531 259.390625 C 171.234375 259.128906 171.636719 258.894531 172.097656 258.691406 C 172.558594 258.484375 173.070312 258.3125 173.632812 258.167969 C 174.195312 258.027344 174.800781 257.921875 175.445312 257.847656 C 176.089844 257.773438 176.765625 257.738281 177.464844 257.738281 C 178.164062 257.738281 178.882812 257.773438 179.613281 257.84375 C 180.34375 257.914062 181.074219 258.019531 181.804688 258.160156 Z M 181.804688 258.160156 " fill-opacity="1" fill-rule="nonzero"/><path fill="#ff7b7b" d="M 282.667969 261.460938 C 282.726562 261.804688 282.710938 262.15625 282.625 262.515625 C 282.539062 262.878906 282.382812 263.238281 282.15625 263.605469 C 281.929688 263.96875 281.636719 264.328125 281.277344 264.683594 C 280.917969 265.039062 280.5 265.378906 280.019531 265.710938 C 279.542969 266.042969 279.015625 266.355469 278.4375 266.648438 C 277.859375 266.941406 277.242188 267.214844 276.585938 267.460938 C 275.929688 267.707031 275.246094 267.925781 274.539062 268.117188 C 273.828125 268.304688 273.109375 268.460938 272.375 268.585938 C 271.640625 268.710938 270.90625 268.804688 270.175781 268.859375 C 269.441406 268.914062 268.726562 268.9375 268.027344 268.921875 C 267.324219 268.90625 266.652344 268.855469 266.011719 268.765625 C 265.367188 268.679688 264.765625 268.5625 264.203125 268.40625 C 263.644531 268.253906 263.136719 268.070312 262.679688 267.855469 C 262.222656 267.636719 261.828125 267.398438 261.492188 267.128906 C 261.15625 266.859375 260.890625 266.570312 260.6875 266.257812 C 260.488281 265.945312 260.359375 265.617188 260.300781 265.277344 C 260.242188 264.933594 260.253906 264.582031 260.339844 264.222656 C 260.425781 263.859375 260.582031 263.5 260.808594 263.132812 C 261.039062 262.769531 261.332031 262.410156 261.691406 262.054688 C 262.050781 261.699219 262.46875 261.359375 262.945312 261.027344 C 263.425781 260.695312 263.953125 260.382812 264.53125 260.089844 C 265.109375 259.796875 265.726562 259.523438 266.382812 259.277344 C 267.039062 259.03125 267.71875 258.8125 268.429688 258.621094 C 269.136719 258.433594 269.859375 258.277344 270.59375 258.152344 C 271.328125 258.027344 272.0625 257.933594 272.792969 257.878906 C 273.523438 257.824219 274.242188 257.804688 274.941406 257.816406 C 275.640625 257.832031 276.3125 257.882812 276.957031 257.972656 C 277.601562 258.058594 278.203125 258.175781 278.761719 258.332031 C 279.324219 258.484375 279.832031 258.667969 280.289062 258.882812 C 280.746094 259.101562 281.140625 259.34375 281.476562 259.609375 C 281.8125 259.878906 282.078125 260.167969 282.277344 260.480469 C 282.480469 260.792969 282.609375 261.121094 282.667969 261.460938 Z M 282.667969 261.460938 " fill-opacity="1" fill-rule="nonzero"/><path fill="#1f3038" d="M 205.652344 230.023438 C 199.886719 224.589844 192.199219 223.003906 184.898438 226.957031 C 178.136719 230.613281 174.152344 238.105469 175.316406 245.703125 C 175.742188 248.445312 176.742188 250.746094 178.234375 252.609375 C 175.769531 250.484375 174.132812 247.589844 173.566406 243.878906 C 172.410156 236.277344 176.394531 228.785156 183.148438 225.128906 C 191.21875 220.761719 199.753906 223.167969 205.652344 230.023438 Z M 205.652344 230.023438 " fill-opacity="1" fill-rule="nonzero"/><path fill="#ffffff" d="M 213.164062 253.96875 C 198.5625 258.601562 185.140625 258.601562 178.234375 252.609375 C 176.742188 250.746094 175.742188 248.445312 175.316406 245.703125 C 174.152344 238.105469 178.136719 230.613281 184.898438 226.957031 C 192.199219 223.003906 199.886719 224.589844 205.652344 230.023438 C 210.402344 235.527344 213.441406 243.914062 213.164062 253.96875 Z M 213.164062 253.96875 " fill-opacity="1" fill-rule="nonzero"/><path fill="#1f3038" d="M 206.101562 243.109375 C 206.101562 243.894531 206.023438 244.671875 205.871094 245.441406 C 205.71875 246.210938 205.492188 246.957031 205.191406 247.683594 C 204.890625 248.40625 204.523438 249.097656 204.085938 249.75 C 203.648438 250.402344 203.15625 251.003906 202.601562 251.558594 C 202.042969 252.113281 201.441406 252.609375 200.789062 253.046875 C 200.136719 253.480469 199.449219 253.851562 198.722656 254.148438 C 197.996094 254.449219 197.25 254.675781 196.480469 254.832031 C 195.710938 254.984375 194.933594 255.058594 194.148438 255.058594 C 193.363281 255.058594 192.585938 254.984375 191.816406 254.832031 C 191.046875 254.675781 190.300781 254.449219 189.574219 254.148438 C 188.851562 253.851562 188.160156 253.480469 187.507812 253.046875 C 186.855469 252.609375 186.253906 252.113281 185.699219 251.558594 C 185.144531 251.003906 184.648438 250.402344 184.210938 249.75 C 183.777344 249.097656 183.40625 248.40625 183.109375 247.683594 C 182.808594 246.957031 182.582031 246.210938 182.425781 245.441406 C 182.273438 244.671875 182.199219 243.894531 182.199219 243.109375 C 182.199219 242.324219 182.273438 241.550781 182.425781 240.78125 C 182.582031 240.011719 182.808594 239.261719 183.109375 238.539062 C 183.40625 237.8125 183.777344 237.125 184.210938 236.472656 C 184.648438 235.820312 185.144531 235.214844 185.699219 234.660156 C 186.253906 234.105469 186.855469 233.609375 187.507812 233.175781 C 188.160156 232.738281 188.851562 232.371094 189.574219 232.070312 C 190.300781 231.769531 191.046875 231.542969 191.816406 231.390625 C 192.585938 231.238281 193.363281 231.160156 194.148438 231.160156 C 194.933594 231.160156 195.710938 231.238281 196.480469 231.390625 C 197.25 231.542969 197.996094 231.769531 198.722656 232.070312 C 199.449219 232.371094 200.136719 232.738281 200.789062 233.175781 C 201.441406 233.609375 202.042969 234.105469 202.601562 234.660156 C 203.15625 235.214844 203.648438 235.820312 204.085938 236.472656 C 204.523438 237.125 204.890625 237.8125 205.191406 238.539062 C 205.492188 239.261719 205.71875 240.011719 205.871094 240.78125 C 206.023438 241.550781 206.101562 242.324219 206.101562 243.109375 Z M 206.101562 243.109375 " fill-opacity="1" fill-rule="nonzero"/><path fill="#ffffff" d="M 189.890625 237.09375 C 189.890625 237.488281 189.816406 237.867188 189.667969 238.230469 C 189.515625 238.59375 189.300781 238.914062 189.023438 239.191406 C 188.746094 239.46875 188.425781 239.683594 188.0625 239.835938 C 187.699219 239.984375 187.320312 240.0625 186.925781 240.0625 C 186.53125 240.0625 186.152344 239.984375 185.789062 239.835938 C 185.425781 239.683594 185.105469 239.46875 184.828125 239.191406 C 184.550781 238.914062 184.335938 238.59375 184.183594 238.230469 C 184.035156 237.867188 183.960938 237.488281 183.960938 237.09375 C 183.960938 236.703125 184.035156 236.324219 184.183594 235.960938 C 184.335938 235.597656 184.550781 235.277344 184.828125 234.996094 C 185.105469 234.71875 185.425781 234.503906 185.789062 234.355469 C 186.152344 234.203125 186.53125 234.128906 186.925781 234.128906 C 187.320312 234.128906 187.699219 234.203125 188.0625 234.355469 C 188.425781 234.503906 188.746094 234.71875 189.023438 234.996094 C 189.300781 235.277344 189.515625 235.597656 189.667969 235.960938 C 189.816406 236.324219 189.890625 236.703125 189.890625 237.09375 Z M 189.890625 237.09375 " fill-opacity="1" fill-rule="nonzero"/><path fill="#1f3038" d="M 246.636719 230.023438 C 252.398438 224.589844 260.085938 223.003906 267.386719 226.957031 C 274.148438 230.613281 278.132812 238.105469 276.96875 245.703125 C 276.542969 248.445312 275.542969 250.746094 274.054688 252.609375 C 276.515625 250.484375 278.152344 247.589844 278.71875 243.878906 C 279.875 236.277344 275.890625 228.785156 269.136719 225.128906 C 261.066406 220.761719 252.53125 223.167969 246.636719 230.023438 Z M 246.636719 230.023438 " fill-opacity="1" fill-rule="nonzero"/><path fill="#ffffff" d="M 239.121094 253.96875 C 253.726562 258.601562 267.144531 258.601562 274.054688 252.609375 C 275.542969 250.746094 276.542969 248.445312 276.96875 245.703125 C 278.132812 238.105469 274.148438 230.613281 267.386719 226.957031 C 260.085938 223.003906 252.398438 224.589844 246.636719 230.023438 C 241.882812 235.527344 238.84375 243.914062 239.121094 253.96875 Z M 239.121094 253.96875 " fill-opacity="1" fill-rule="nonzero"/><path fill="#1f3038" d="M 270.085938 243.109375 C 270.085938 243.894531 270.011719 244.671875 269.859375 245.441406 C 269.703125 246.210938 269.476562 246.957031 269.179688 247.683594 C 268.878906 248.40625 268.507812 249.097656 268.074219 249.75 C 267.636719 250.402344 267.140625 251.003906 266.585938 251.558594 C 266.03125 252.113281 265.429688 252.609375 264.777344 253.046875 C 264.125 253.480469 263.433594 253.851562 262.710938 254.148438 C 261.984375 254.449219 261.238281 254.675781 260.46875 254.832031 C 259.699219 254.984375 258.921875 255.058594 258.136719 255.058594 C 257.351562 255.058594 256.574219 254.984375 255.804688 254.832031 C 255.035156 254.675781 254.289062 254.449219 253.5625 254.148438 C 252.839844 253.851562 252.148438 253.480469 251.496094 253.046875 C 250.84375 252.609375 250.242188 252.113281 249.6875 251.558594 C 249.132812 251.003906 248.636719 250.402344 248.199219 249.75 C 247.761719 249.097656 247.394531 248.40625 247.09375 247.683594 C 246.792969 246.957031 246.566406 246.210938 246.414062 245.441406 C 246.261719 244.671875 246.183594 243.894531 246.183594 243.109375 C 246.183594 242.324219 246.261719 241.550781 246.414062 240.78125 C 246.566406 240.011719 246.792969 239.261719 247.09375 238.539062 C 247.394531 237.8125 247.761719 237.125 248.199219 236.472656 C 248.636719 235.820312 249.132812 235.214844 249.6875 234.660156 C 250.242188 234.105469 250.84375 233.609375 251.496094 233.175781 C 252.148438 232.738281 252.839844 232.371094 253.5625 232.070312 C 254.289062 231.769531 255.035156 231.542969 255.804688 231.390625 C 256.574219 231.238281 257.351562 231.160156 258.136719 231.160156 C 258.921875 231.160156 259.699219 231.238281 260.46875 231.390625 C 261.238281 231.542969 261.984375 231.769531 262.710938 232.070312 C 263.433594 232.371094 264.125 232.738281 264.777344 233.175781 C 265.429688 233.609375 266.03125 234.105469 266.585938 234.660156 C 267.140625 235.214844 267.636719 235.820312 268.074219 236.472656 C 268.507812 237.125 268.878906 237.8125 269.179688 238.539062 C 269.476562 239.261719 269.703125 240.011719 269.859375 240.78125 C 270.011719 241.550781 270.085938 242.324219 270.085938 243.109375 Z M 270.085938 243.109375 " fill-opacity="1" fill-rule="nonzero"/><path fill="#ffffff" d="M 268.328125 237.09375 C 268.328125 237.488281 268.25 237.867188 268.101562 238.230469 C 267.949219 238.59375 267.734375 238.914062 267.457031 239.191406 C 267.179688 239.46875 266.859375 239.683594 266.496094 239.835938 C 266.132812 239.984375 265.753906 240.0625 265.359375 240.0625 C 264.964844 240.0625 264.589844 239.984375 264.226562 239.835938 C 263.863281 239.683594 263.539062 239.46875 263.261719 239.191406 C 262.984375 238.914062 262.769531 238.59375 262.621094 238.230469 C 262.46875 237.867188 262.394531 237.488281 262.394531 237.09375 C 262.394531 236.703125 262.46875 236.324219 262.621094 235.960938 C 262.769531 235.597656 262.984375 235.277344 263.261719 234.996094 C 263.539062 234.71875 263.863281 234.503906 264.226562 234.355469 C 264.589844 234.203125 264.964844 234.128906 265.359375 234.128906 C 265.753906 234.128906 266.132812 234.203125 266.496094 234.355469 C 266.859375 234.503906 267.179688 234.71875 267.457031 234.996094 C 267.734375 235.277344 267.949219 235.597656 268.101562 235.960938 C 268.25 236.324219 268.328125 236.703125 268.328125 237.09375 Z M 268.328125 237.09375 " fill-opacity="1" fill-rule="nonzero"/><path fill="#1f3038" d="M 192.390625 208.777344 C 187.328125 208.558594 182.355469 210.480469 179.09375 213.925781 C 178.675781 214.371094 178.695312 215.070312 179.136719 215.492188 C 179.351562 215.695312 179.625 215.796875 179.898438 215.796875 C 180.195312 215.796875 180.488281 215.679688 180.707031 215.449219 C 183.53125 212.464844 187.855469 210.789062 192.296875 210.992188 C 195.828125 211.148438 198.914062 212.472656 200.554688 214.542969 C 200.9375 215.023438 201.632812 215.101562 202.113281 214.722656 C 202.59375 214.34375 202.671875 213.644531 202.292969 213.164062 C 200.226562 210.5625 196.617188 208.960938 192.390625 208.777344 Z M 192.390625 208.777344 " fill-opacity="1" fill-rule="nonzero"/><path fill="#1f3038" d="M 273.1875 213.921875 C 269.929688 210.480469 264.964844 208.550781 259.894531 208.773438 C 255.664062 208.960938 252.058594 210.558594 249.992188 213.164062 C 249.609375 213.644531 249.691406 214.339844 250.171875 214.722656 C 250.652344 215.101562 251.347656 215.019531 251.730469 214.542969 C 253.371094 212.472656 256.457031 211.144531 259.988281 210.992188 C 264.425781 210.792969 268.753906 212.464844 271.578125 215.445312 C 271.796875 215.675781 272.089844 215.792969 272.382812 215.792969 C 272.660156 215.792969 272.933594 215.691406 273.148438 215.488281 C 273.589844 215.070312 273.609375 214.367188 273.1875 213.921875 Z M 273.1875 213.921875 " fill-opacity="1" fill-rule="nonzero"/></svg>