<svg xmlns="http://www.w3.org/2000/svg" xmlns:xlink="http://www.w3.org/1999/xlink" width="600" zoomAndPan="magnify" viewBox="0 0 450 449.999984" height="600" preserveAspectRatio="xMidYMid meet" version="1.0"><defs><clipPath id="6e3c5f6dca"><path d="M 114.375 325 L 335.625 325 L 335.625 405 L 114.375 405 Z M 114.375 325 " clip-rule="nonzero"/></clipPath><clipPath id="4925566ae7"><path d="M 261 320 L 335.625 320 L 335.625 403 L 261 403 Z M 261 320 " clip-rule="nonzero"/></clipPath></defs><rect x="-45" width="540" fill="#ffffff" y="-44.999998" height="539.99998" fill-opacity="1"/><rect x="-45" width="540" fill="#d9d9d9" y="-44.999998" height="539.99998" fill-opacity="1"/><g clip-path="url(#6e3c5f6dca)"><path fill="#964f4f" d="M 335.226562 386.539062 C 335.3125 391.417969 335.3125 396.308594 335.53125 401.1875 C 335.640625 403.746094 334.847656 404.765625 332.136719 404.660156 C 327.109375 404.472656 322.070312 404.609375 317.042969 404.609375 C 251.339844 404.609375 185.648438 404.558594 119.945312 404.695312 C 115.746094 404.703125 114.382812 403.597656 114.710938 399.46875 C 115.125 394.320312 115.0625 389.136719 115.203125 383.960938 C 117.742188 383.839844 117.769531 385.777344 117.941406 387.453125 C 118.234375 390.320312 117.949219 393.207031 118.175781 396.074219 C 118.304688 397.671875 118.554688 399.546875 120.558594 399.625 C 122.898438 399.710938 123.226562 397.671875 123.226562 395.933594 C 123.226562 388.585938 123.910156 381.386719 125.707031 374.175781 C 128.382812 363.4375 134.949219 355.722656 143.492188 349.542969 C 156.632812 340.050781 171.6875 334.761719 187.28125 330.894531 C 192.574219 329.582031 197.898438 328.351562 203.304688 327.53125 C 205.773438 326.332031 207.40625 327.792969 208.945312 329.382812 C 214.144531 334.746094 219.683594 339.757812 225.246094 344.734375 C 225.675781 345.113281 226.066406 345.535156 226.496094 345.917969 C 232.648438 351.375 233.753906 351.230469 239.757812 345.769531 C 246.019531 340.066406 252.386719 334.488281 257.742188 327.871094 C 258.890625 326.445312 260.289062 325 262.519531 325.734375 C 271.804688 327.609375 281.003906 329.796875 289.78125 333.476562 C 300.777344 338.089844 310.710938 344.136719 317.820312 354.082031 C 324.765625 363.800781 327.152344 374.917969 327.902344 386.519531 C 328.101562 389.671875 328.128906 392.824219 328.785156 395.933594 C 329.042969 397.148438 328.972656 398.925781 330.710938 398.75 C 332.308594 398.585938 332.1875 396.851562 332.28125 395.597656 C 332.4375 393.59375 332.230469 391.574219 332.523438 389.578125 C 332.75 388.023438 332.902344 386.285156 335.226562 386.539062 Z M 335.226562 386.539062 " fill-opacity="1" fill-rule="nonzero"/></g><path fill="#fe9881" d="M 210.164062 284.578125 C 210.207031 282.488281 208.710938 281.6875 207.164062 280.8125 C 197.230469 275.207031 187.851562 268.910156 181.191406 259.363281 C 179.695312 257.21875 177.691406 257.84375 175.757812 257.867188 C 164.25 258.023438 155.363281 251.0625 152.769531 239.839844 C 150.292969 229.101562 156.035156 221.039062 166.980469 219.898438 C 167.957031 219.796875 169.027344 219.996094 169.632812 218.914062 C 170.382812 218.441406 171.160156 218.242188 172.078125 218.328125 C 174.617188 218.5625 175.914062 217.1875 175.914062 214.792969 C 175.894531 203.738281 176.757812 192.636719 175.480469 181.636719 C 174.703125 174.953125 176.828125 170.132812 182.183594 166.503906 C 190.625 160.792969 200.316406 159.402344 210.128906 159.21875 C 214.535156 159.132812 218.328125 161.355469 221.953125 164.472656 C 227.066406 168.851562 233.304688 171.894531 238.125 175.125 C 233.890625 172.386719 228.882812 169.042969 223.714844 165.941406 C 222.871094 165.441406 221.6875 164.992188 222.195312 163.746094 C 222.707031 162.511719 223.941406 162.285156 225.132812 162.660156 C 227.878906 163.511719 230.601562 164.480469 233.089844 165.925781 C 248.4375 174.8125 264.332031 182.40625 281.644531 186.71875 C 283.941406 187.289062 285.566406 188.453125 285.273438 191.210938 C 285.023438 193.550781 286.59375 195.617188 286.429688 197.957031 C 286.558594 203.496094 286.414062 209.03125 286.535156 214.570312 C 286.59375 217.578125 287.347656 220.21875 290.550781 221.394531 C 290.835938 221.394531 291.136719 221.464844 291.414062 221.410156 C 306.808594 218.34375 312.128906 232.859375 307.074219 244.289062 C 302.859375 253.824219 293.582031 259.226562 283.121094 258.066406 C 280.910156 257.816406 279.640625 258.5 278.457031 260.191406 C 272.867188 268.199219 265.84375 274.730469 257.457031 279.671875 C 254.96875 281.140625 254.726562 283.050781 254.917969 285.417969 C 250.867188 285.476562 247.160156 286.84375 243.542969 288.503906 C 235.273438 292.292969 227.042969 292.683594 218.742188 288.476562 C 215.941406 287.058594 212.925781 286.074219 210.15625 284.5625 Z M 210.164062 284.578125 " fill-opacity="1" fill-rule="nonzero"/><path fill="#191919" d="M 284.324219 198.335938 C 284.175781 197.929688 283.847656 197.492188 283.917969 197.128906 C 285.203125 189.863281 280.609375 188.453125 274.871094 186.96875 C 260.308594 183.183594 247.039062 176.238281 233.980469 168.921875 C 230.652344 167.054688 227.101562 165.585938 223.441406 164.324219 C 230.210938 168.957031 237.0625 173.386719 243.179688 178.960938 C 239.585938 176.730469 235.992188 174.511719 232.40625 172.273438 C 230.332031 170.976562 228.164062 169.8125 226.238281 168.316406 C 213.53125 158.453125 200.160156 160.4375 186.78125 166.304688 C 178.953125 169.734375 177.441406 173.835938 177.769531 182.3125 C 178.246094 194.511719 177.941406 206.734375 178.027344 218.949219 C 178.046875 221.585938 176.957031 222.257812 174.554688 221.410156 C 172.800781 220.796875 170.929688 220.480469 169.660156 218.921875 C 164.640625 204.980469 159.765625 190.984375 155.527344 176.773438 C 155.121094 175.417969 154.980469 173.992188 154.714844 172.601562 C 153.644531 170.492188 153.175781 168.300781 153.839844 165.96875 C 153.589844 158.453125 158.203125 153.804688 163.566406 149.65625 C 166.886719 147.089844 170.601562 145.113281 174.609375 143.921875 C 178.574219 142.738281 182.667969 141.984375 187.453125 140.871094 C 183.382812 139.101562 179.765625 138.453125 175.988281 138.875 C 171.972656 139.324219 168.121094 140.414062 164.484375 142.253906 C 161.089844 143.972656 158.375 146.605469 155.535156 149.085938 C 163.179688 137.761719 175.59375 133.90625 189.078125 138.269531 C 190.441406 138.710938 191.882812 139.039062 193.128906 139.714844 C 195.832031 141.191406 196.964844 141.019531 197.171875 137.441406 C 197.644531 129.269531 202.242188 123.152344 208.417969 118.339844 C 219.976562 109.339844 233.082031 108.300781 246.859375 111.757812 C 247.636719 111.957031 248.328125 112.535156 249.578125 113.234375 C 240.914062 114.582031 233.488281 117.339844 227.285156 123.644531 C 230.046875 124.378906 232.15625 123.167969 234.324219 122.945312 C 262.398438 120.023438 283.304688 131.957031 299.101562 154.242188 C 306.324219 164.429688 312.15625 175.601562 320.59375 184.9375 C 322.082031 186.578125 321.269531 187.246094 319.730469 188.101562 C 313.898438 191.347656 307.59375 192.636719 301.054688 192.324219 C 297.523438 192.152344 296.882812 193.65625 297.304688 196.550781 C 297.78125 197.808594 296.605469 197.671875 296.035156 198.042969 C 295.65625 198.191406 295.257812 198.257812 294.851562 198.25 C 292.226562 198.035156 290.378906 195.125 287.414062 196.117188 C 286.207031 196.601562 285.84375 198.277344 284.339844 198.335938 Z M 284.324219 198.335938 " fill-opacity="1" fill-rule="nonzero"/><path fill="#fe9881" d="M 261.941406 326.9375 C 254.902344 333.917969 248.1875 341.207031 240.777344 347.835938 C 233.304688 354.511719 233.367188 354.789062 225.859375 348.121094 C 219.835938 342.773438 214.066406 337.140625 208.160156 331.671875 C 206.90625 330.503906 205.507812 329.492188 204.175781 328.414062 C 199.761719 327.402344 196.4375 323.472656 197.121094 320.085938 C 199.574219 318.84375 202.257812 318.6875 204.917969 318.347656 C 208.996094 323.171875 209.117188 323.125 215.148438 321.371094 C 229.070312 317.3125 239.742188 308.597656 249.019531 297.875 C 249.863281 296.898438 250.703125 295.914062 251.53125 294.921875 C 253.40625 292.683594 254.832031 293.519531 256.039062 295.628906 C 256.828125 300.96875 257.957031 306.289062 258.277344 311.664062 C 258.546875 316.15625 259.824219 318.996094 264.765625 319.152344 C 265.550781 319.179688 266.320312 319.75 267.097656 320.070312 C 268.296875 323.773438 266.960938 325.5625 261.941406 326.953125 Z M 261.941406 326.9375 " fill-opacity="1" fill-rule="nonzero"/><path fill="#964f4f" d="M 197.109375 320.085938 C 198.96875 323.28125 202.457031 325.097656 204.167969 328.414062 C 199.617188 331.550781 194.097656 331.421875 189.023438 332.691406 C 174.882812 336.230469 161.347656 341.097656 148.726562 348.535156 C 133.007812 357.796875 126.078125 371.859375 125.472656 389.585938 C 125.371094 392.738281 125.378906 395.910156 125.457031 399.0625 C 125.542969 402.546875 123.382812 402.925781 120.636719 402.953125 C 117.785156 402.976562 116.023438 402.292969 115.917969 398.925781 C 115.765625 393.929688 116.75 388.875 115.203125 383.960938 C 115.601562 367.339844 121.734375 353.632812 135.449219 343.679688 C 151.199219 332.25 169.175781 326.183594 187.84375 321.777344 C 190.890625 321.0625 193.90625 320 197.109375 320.09375 Z M 197.109375 320.085938 " fill-opacity="1" fill-rule="nonzero"/><path fill="#f7705c" d="M 256.03125 295.613281 C 253.355469 294.296875 252.699219 296.753906 251.558594 298.109375 C 241.824219 309.789062 230.464844 319.144531 215.570312 323.488281 C 214.199219 323.894531 212.816406 324.292969 211.414062 324.605469 C 205.800781 325.867188 204.167969 324.285156 204.902344 318.332031 C 207.3125 311.820312 207.140625 304.882812 208.246094 298.152344 C 208.988281 293.640625 209.523438 289.097656 210.15625 284.570312 C 211.425781 283.078125 212.894531 283.214844 214.378906 284.148438 C 226.445312 291.785156 238.382812 289.953125 250.003906 283.292969 C 253.335938 281.382812 254.125 282.773438 254.917969 285.417969 C 255.472656 288.785156 256.222656 292.148438 256.03125 295.59375 Z M 256.03125 295.613281 " fill-opacity="1" fill-rule="nonzero"/><g clip-path="url(#4925566ae7)"><path fill="#964f4f" d="M 261.941406 326.9375 C 263.347656 324.414062 266.378906 323.101562 267.097656 320.050781 C 288.640625 324.09375 308.179688 332.144531 322.683594 349.328125 C 331.652344 359.953125 334.953125 372.808594 335.238281 386.539062 C 333.742188 390.441406 334.667969 394.511719 334.511719 398.503906 C 334.40625 401.179688 333.804688 402.917969 330.640625 402.933594 C 327.558594 402.953125 326.945312 401.335938 326.632812 398.625 C 325.761719 391.0625 325.871094 383.433594 324.507812 375.902344 C 320.878906 355.800781 308.3125 343.472656 290.164062 335.980469 C 282.992188 333.019531 275.648438 330.480469 267.9375 329.226562 C 265.792969 328.878906 263.730469 328.257812 261.949219 326.929688 Z M 261.941406 326.9375 " fill-opacity="1" fill-rule="nonzero"/></g><path fill="#191919" d="M 284.324219 198.335938 C 284.433594 196.539062 284.175781 194.675781 285.222656 193.042969 C 289.339844 192.921875 292.21875 195.789062 295.628906 197.378906 L 295.578125 197.34375 C 295.898438 197.644531 296.433594 197.714844 296.5625 198.242188 C 296.375 206.433594 293.117188 213.835938 290.558594 221.410156 C 285.929688 224.730469 285.28125 224.601562 284.894531 218.984375 C 284.417969 212.125 284.488281 205.222656 284.324219 198.335938 Z M 284.324219 198.335938 " fill-opacity="1" fill-rule="nonzero"/><path fill="#191919" d="M 153.832031 165.957031 C 154.125 168.167969 154.410156 170.382812 154.707031 172.59375 C 152.625 178.546875 154.453125 184.394531 155.363281 190.214844 C 155.964844 194.105469 157.226562 197.886719 158.273438 202.035156 C 153.523438 196.886719 151.191406 176.316406 153.839844 165.96875 Z M 153.832031 165.957031 " fill-opacity="1" fill-rule="nonzero"/><path fill="#191919" d="M 296.5625 198.242188 C 296.234375 197.941406 295.90625 197.644531 295.578125 197.34375 C 296.148438 197.074219 296.71875 196.808594 297.289062 196.539062 C 302.714844 199.046875 308.742188 199.367188 314.390625 201.128906 C 308.128906 201.964844 302.488281 199.261719 296.5625 198.242188 Z M 296.5625 198.242188 " fill-opacity="1" fill-rule="nonzero"/><path fill="#191919" d="M 306.816406 160.949219 C 304.5 157.484375 302.195312 154.011719 299.878906 150.546875 C 303.480469 153.164062 305.375 156.9375 307.792969 160.351562 C 307.464844 160.550781 307.144531 160.75 306.816406 160.949219 Z M 306.816406 160.949219 " fill-opacity="1" fill-rule="nonzero"/><path fill="#191919" d="M 316.757812 170.855469 C 319.714844 171.597656 322.304688 173.023438 325.179688 173.636719 C 321.785156 174.503906 319.082031 173.085938 316.757812 170.855469 Z M 316.757812 170.855469 " fill-opacity="1" fill-rule="nonzero"/><path fill="#ffffff" d="M 231.894531 262.921875 C 222.542969 262.835938 215.300781 254.808594 216.089844 245.550781 C 216.253906 243.605469 217.1875 243.113281 218.835938 243.105469 C 227.601562 243.070312 236.371094 243.007812 245.140625 242.984375 C 246.675781 242.984375 247.84375 243.226562 248.03125 245.265625 C 248.898438 254.351562 241.054688 263.007812 231.894531 262.929688 Z M 231.894531 262.921875 " fill-opacity="1" fill-rule="nonzero"/><path fill="#f7705c" d="M 193.878906 240.539062 C 186.476562 240.539062 183.375 238.421875 183.410156 233.4375 C 183.453125 226.890625 187.632812 223.242188 195.082031 223.269531 C 201.894531 223.285156 204.9375 226.09375 204.894531 232.339844 C 204.859375 238.058594 201.507812 240.546875 193.878906 240.539062 Z M 193.878906 240.539062 " fill-opacity="1" fill-rule="nonzero"/><path fill="#f7705c" d="M 269.265625 240.539062 C 268.265625 240.539062 267.261719 240.554688 266.261719 240.539062 C 259.167969 240.390625 256.058594 235.242188 259.28125 228.832031 C 260.457031 226.492188 262.21875 224.851562 265.128906 225.808594 C 266.554688 226.277344 267.917969 226.144531 269.351562 226.050781 C 270.761719 225.957031 272.230469 225.972656 273.601562 226.277344 C 278.820312 227.449219 282.128906 231.113281 281.574219 234.90625 C 281.03125 238.664062 278.121094 240.425781 272.273438 240.546875 C 271.269531 240.5625 270.269531 240.546875 269.265625 240.546875 Z M 269.265625 240.539062 " fill-opacity="1" fill-rule="nonzero"/><path fill="#191919" d="M 276.417969 199.441406 C 267.046875 195.632812 257.335938 195.113281 247.601562 194.785156 C 245.035156 194.699219 242.960938 193.785156 243.03125 190.820312 C 243.101562 187.859375 245.285156 187.132812 247.792969 187.011719 C 255.054688 186.667969 262.097656 187.867188 268.867188 190.398438 C 272.886719 191.902344 274.707031 195.574219 276.417969 199.433594 Z M 276.417969 199.441406 " fill-opacity="1" fill-rule="nonzero"/><path fill="#191919" d="M 185.171875 200.480469 C 187.226562 195.890625 189.464844 192.402344 193.542969 190.863281 C 199.753906 188.523438 206.230469 187.097656 212.917969 187.125 C 215.578125 187.125 218.464844 187.46875 218.542969 191.011719 C 218.609375 194.457031 215.785156 195.210938 213.144531 195.324219 C 206.957031 195.582031 200.765625 195.617188 194.753906 197.300781 C 191.773438 198.140625 188.859375 199.246094 185.171875 200.480469 Z M 185.171875 200.480469 " fill-opacity="1" fill-rule="nonzero"/><path fill="#f7705c" d="M 300.3125 232.824219 C 300.011719 234.636719 298.730469 234.90625 297.875 235.5625 C 295.835938 237.101562 294.394531 238.242188 297.324219 240.703125 C 300.011719 242.964844 298.378906 245.714844 296.433594 247.828125 C 294.300781 250.164062 291.492188 252.105469 288.519531 250.171875 C 285.84375 248.425781 286.472656 245.210938 287.984375 242.835938 C 290.886719 238.265625 294.378906 234.242188 300.3125 232.824219 Z M 300.3125 232.824219 " fill-opacity="1" fill-rule="nonzero"/><path fill="#f7705c" d="M 167.792969 236.980469 C 165.582031 235.292969 163.679688 233.84375 161.683594 232.324219 C 166.9375 231.632812 173.941406 237.78125 173.789062 242.777344 C 173.734375 244.46875 173.304688 246.050781 171.394531 246.335938 C 168.398438 246.785156 165.296875 247.078125 163.066406 244.375 C 161.832031 242.871094 161.304688 241.003906 162.308594 239.171875 C 163.378906 237.222656 165.839844 238.59375 167.792969 236.980469 Z M 167.792969 236.980469 " fill-opacity="1" fill-rule="nonzero"/><path fill="#191919" d="M 203.898438 210.578125 C 206.320312 211.148438 208.324219 212.167969 208.261719 215.046875 C 208.203125 217.609375 206.585938 219.132812 204.175781 219.175781 C 201.507812 219.21875 199.902344 217.558594 199.917969 214.8125 C 199.933594 212.289062 201.378906 210.890625 203.898438 210.578125 Z M 203.898438 210.578125 " fill-opacity="1" fill-rule="nonzero"/><path fill="#191919" d="M 257.863281 211.191406 C 260.273438 211.355469 261.898438 212.496094 261.84375 215.132812 C 261.792969 217.894531 259.945312 219.355469 257.449219 219.320312 C 254.988281 219.296875 253.585938 217.414062 253.621094 215.035156 C 253.65625 212.539062 255.28125 211.253906 257.871094 211.191406 Z M 257.863281 211.191406 " fill-opacity="1" fill-rule="nonzero"/><path fill="#f7705c" d="M 233.15625 233.894531 C 231.601562 225.902344 233.175781 217.835938 232.613281 209.820312 C 234.289062 215.476562 234.789062 229.09375 233.15625 233.894531 Z M 233.15625 233.894531 " fill-opacity="1" fill-rule="nonzero"/><path fill="#191919" d="M 267.039062 214.027344 C 262.960938 210.242188 258.890625 206.863281 252.523438 209.1875 C 254.574219 206.355469 256.042969 205.523438 258.648438 206.199219 C 262.691406 207.242188 265.691406 209.6875 267.027344 214.027344 Z M 267.039062 214.027344 " fill-opacity="1" fill-rule="nonzero"/><path fill="#191919" d="M 210.679688 208.945312 C 203.347656 205.777344 199.554688 211.183594 194.5625 214.570312 C 196.574219 206.742188 205.101562 203.667969 210.679688 208.945312 Z M 210.679688 208.945312 " fill-opacity="1" fill-rule="nonzero"/><path fill="#191919" d="M 295.640625 197.378906 C 292.167969 195.9375 288.703125 194.484375 285.230469 193.042969 C 284.996094 192.160156 285.253906 191.488281 286.214844 191.96875 C 289.453125 193.59375 293.082031 194.570312 295.640625 197.378906 Z M 295.640625 197.378906 " fill-opacity="1" fill-rule="nonzero"/></svg>